<svg xmlns="http://www.w3.org/2000/svg" viewBox="0 0 133 135"><defs><style>.cls-1{fill:#fff;}.cls-1,.cls-2{stroke:#231f20;stroke-miterlimit:10;}.cls-2{fill:#231f20;}</style></defs><g id="Layer_2" data-name="Layer 2"><g id="Layer_1-2" data-name="Layer 1"><rect class="cls-1" x="0.5" y="0.5" width="132" height="134" rx="65.94"/><path class="cls-2" d="M35.79,109.69h-6v-3.52h6a25.78,25.78,0,0,0,10.59-2.24,27.42,27.42,0,0,0,8.67-6A29.09,29.09,0,0,0,63,78V25.31H66.5V78a32.69,32.69,0,0,1-9,22.44,30.79,30.79,0,0,1-9.81,6.78A29.21,29.21,0,0,1,35.79,109.69Zm0-7h-6V99.14h6a19,19,0,0,0,14.28-6.2A21,21,0,0,0,56,78V25.31h3.52V78a25.13,25.13,0,0,1-3.15,12.38,23.91,23.91,0,0,1-8.62,9A22.55,22.55,0,0,1,35.79,102.66Zm0-7h-6V92.11h6A12.2,12.2,0,0,0,45.09,88a14.25,14.25,0,0,0,3.83-10V25.31h3.52V78a17.61,17.61,0,0,1-4.86,12.5A15.57,15.57,0,0,1,35.79,95.62Zm0-7h-6V85.08h6a5.59,5.59,0,0,0,4.34-2A7.43,7.43,0,0,0,41.89,78V25.31h3.52V78a10.78,10.78,0,0,1-2.79,7.64A8.94,8.94,0,0,1,35.79,88.59Z"/><path class="cls-2" d="M65.16,30.59c13.31,0,13.31-3.52,13.31-3.52h-13"/><path class="cls-2" d="M99.11,54.24a24.42,24.42,0,0,0-7.84-9.59,18,18,0,0,0-10.65-3.52H66.8v.14c0,1.12,0,2.25-.13,3.38h14a14.53,14.53,0,0,1,8.87,3.05A21.22,21.22,0,0,1,96,56,27.2,27.2,0,0,1,98.4,67.5a25.43,25.43,0,0,1-5.25,16.14q-5.25,6.7-12.53,6.71H63.56a19.49,19.49,0,0,1-3.4,3.52H80.62a18,18,0,0,0,10.65-3.52,24.38,24.38,0,0,0,7.84-9.62,31.7,31.7,0,0,0,0-26.49Z"/><path class="cls-2" d="M111.56,47.24A38.92,38.92,0,0,0,98.4,32.49a31.81,31.81,0,0,0-17.78-5.42H67.68a33.07,33.07,0,0,1-.36,3.52h13.3A27.58,27.58,0,0,1,93,33.52a32.87,32.87,0,0,1,10.3,7.88,38.63,38.63,0,0,1,7,11.79,40.59,40.59,0,0,1,0,28.64,37.92,37.92,0,0,1-7,11.79A33,33,0,0,1,93,101.48a27.58,27.58,0,0,1-12.36,2.93H50.48a13.09,13.09,0,0,1-2.34,3.52H80.62a31.25,31.25,0,0,0,13.75-3.2,36.28,36.28,0,0,0,11.45-8.62,42,42,0,0,0,7.74-12.91,44.17,44.17,0,0,0-2-36Z"/><path class="cls-2" d="M90.61,53.85q-4.17-5.68-10-5.69H66.38l.06.22c.13.56.24,1.13.34,1.7a5.67,5.67,0,0,1,.06,1.6H80.62q4.35,0,7.45,4.61a19.64,19.64,0,0,1,3.1,11.21,19.63,19.63,0,0,1-3.1,11.18q-3.1,4.63-7.45,4.64H65.93a11.69,11.69,0,0,1-.57,3.52H80.62q5.82,0,10-5.67A22.4,22.4,0,0,0,94.78,67.5,22.46,22.46,0,0,0,90.61,53.85Z"/><path class="cls-2" d="M105.33,50.75a31.58,31.58,0,0,0-10.5-12.18A24.82,24.82,0,0,0,80.62,34.1h-14c0,.12,0,.24-.08.36a22.19,22.19,0,0,1,.25,3.16H80.62a21.32,21.32,0,0,1,12.41,4,28.26,28.26,0,0,1,9.18,10.91,34.61,34.61,0,0,1,0,30,28.31,28.31,0,0,1-9.16,10.89,21.27,21.27,0,0,1-12.43,4H58.16a4.47,4.47,0,0,1-3.48,2.7,5.33,5.33,0,0,1-.59.82H80.62a24.82,24.82,0,0,0,14.21-4.47,31.58,31.58,0,0,0,10.5-12.18,37.83,37.83,0,0,0,0-33.5Z"/></g></g></svg>