<svg id="Layer_1" data-name="Layer 1" xmlns="http://www.w3.org/2000/svg" xmlns:xlink="http://www.w3.org/1999/xlink" viewBox="0 0 1507.26 602.34"><defs><style>.cls-1,.cls-6{fill:none;stroke-miterlimit:10;stroke-width:10px;}.cls-1{stroke:#fbb03b;}.cls-2{fill:url(#linear-gradient);}.cls-3,.cls-4,.cls-5{isolation:isolate;}.cls-4,.cls-5{font-size:313.06px;font-family:aAtmospheric, a Atmospheric;}.cls-4{fill:#646363;}.cls-5{fill:#fbb03b;}.cls-6{stroke:#fff;}</style><linearGradient id="linear-gradient" x1="526.38" y1="25.66" x2="81.02" y2="570.95" gradientTransform="matrix(1, 0, 0, -1, -3, 605)" gradientUnits="userSpaceOnUse"><stop offset="0" stop-color="#fff"/><stop offset="0.02" stop-color="#f9f9f9"/><stop offset="0.23" stop-color="#b3b3b3"/><stop offset="0.43" stop-color="#7c7c7c"/><stop offset="0.59" stop-color="#545454"/><stop offset="0.73" stop-color="#3c3c3c"/><stop offset="0.81" stop-color="#333"/></linearGradient></defs><title>logo</title><g id="Outer_Circles" data-name="Outer Circles"><circle class="cls-1" cx="274" cy="274" r="269"/><circle class="cls-2" cx="274" cy="274" r="254"/></g><g id="NISA"><g class="cls-3"><text class="cls-4" transform="translate(543.31 539.67)">N</text><text class="cls-5" transform="translate(833.14 539.67)">I</text><text class="cls-4" transform="translate(938 539.67)">SA</text></g></g><g id="Circuit"><line class="cls-6" x1="305.69" y1="124.11" x2="305.69" y2="187.51"/><line class="cls-6" x1="236.2" y1="124.11" x2="236.2" y2="186.42"/><circle class="cls-6" cx="306.44" cy="110.71" r="18.11"/><ellipse class="cls-6" cx="236.88" cy="111.11" rx="18.11" ry="17.43"/><line class="cls-6" x1="235.63" y1="414.49" x2="235.63" y2="354.71"/><line class="cls-6" x1="305.19" y1="414.49" x2="305.19" y2="354.71"/><circle class="cls-6" cx="238.43" cy="433.97" r="18.11" transform="translate(-214.35 638.04) rotate(-85.93)"/><circle class="cls-6" cx="304.99" cy="430.97" r="18.11"/><path class="cls-6" d="M363.42,233.49l48.46-.16a2.5,2.5,0,0,0,2.26-2.68V172.82" transform="translate(-3 -3)"/><circle class="cls-6" cx="411.14" cy="147.3" r="18.11"/><path class="cls-6" d="M184.45,233.49,136,233.33a2.49,2.49,0,0,1-2.24-2.66V172.82" transform="translate(-3 -3)"/><circle class="cls-6" cx="130.55" cy="147.3" r="18.11"/><path class="cls-6" d="M363.42,306.35l48.5.18c1.23,0,2.22,1.29,2.22,2.88v63.84" transform="translate(-3 -3)"/><circle class="cls-6" cx="411.14" cy="392.65" r="18.11"/><path class="cls-6" d="M183.9,306.35l-48.52.18c-1.21,0-2.2,1.28-2.2,2.87v63.85" transform="translate(-3 -3)"/><circle class="cls-6" cx="130.36" cy="392.38" r="18.11"/><path class="cls-6" d="M360.88,358.25a2.93,2.93,0,0,1-2.93,2.93H190a2.93,2.93,0,0,1-2.93-2.93v-168a2.93,2.93,0,0,1,2.93-2.93H358a2.93,2.93,0,0,1,2.93,2.93Z" transform="translate(-3 -3)"/></g></svg>