<svg id="Layer_1" data-name="Layer 1" xmlns="http://www.w3.org/2000/svg" xmlns:xlink="http://www.w3.org/1999/xlink" width="165.6064" height="62.1064" viewBox="0 0 165.6064 62.1064"><defs><style>.cls-1{fill:#fbb03b;}.cls-2{fill:url(#linear-gradient);}.cls-3{isolation:isolate;}.cls-4{fill:#646363;}.cls-5{fill:#fff;}</style><linearGradient id="linear-gradient" x1="57.9216" y1="-12.1699" x2="9.4855" y2="47.1343" gradientTransform="matrix(1, 0, 0, -1, 0, 52.66)" gradientUnits="userSpaceOnUse"><stop offset="0" stop-color="#fff"/><stop offset="0.02" stop-color="#f9f9f9"/><stop offset="0.23" stop-color="#b3b3b3"/><stop offset="0.43" stop-color="#7c7c7c"/><stop offset="0.59" stop-color="#545454"/><stop offset="0.73" stop-color="#3c3c3c"/><stop offset="0.81" stop-color="#333"/></linearGradient></defs><title>logoedited</title><g id="Outer_Circles" data-name="Outer Circles"><path class="cls-1" d="M30.8,61.4207A29.799,29.799,0,1,1,60.5991,31.622,29.8327,29.8327,0,0,1,30.8,61.4207Zm0-58.51A28.7116,28.7116,0,1,0,59.5111,31.622,28.7438,28.7438,0,0,0,30.8,2.9107Z"/><circle class="cls-2" cx="30.7995" cy="31.6221" r="27.6243"/></g><g id="NISA"><g class="cls-3"><g class="cls-3"><path class="cls-4" d="M82.7645,34.0819h6.2832V60.5155H82.7645L68.932,43.0927V60.5155H62.6478V35.1132l6.2842-1.6963L82.7645,50.84Z"/></g><g class="cls-3"><path class="cls-1" d="M94.1718,34.0819h6.2841V60.5155H94.1718Z"/></g><g class="cls-3"><path class="cls-4" d="M113.954,50.1083q-5.32,0-7.9141-3.3916a7.59,7.59,0,0,1,1.0479-10.3408,10.0194,10.0194,0,0,1,6.8662-2.294h17.9541l-1.6953,5.6192H114.02a2.6447,2.6447,0,0,0-2.6934,1.4961,2.3564,2.3564,0,0,0-.1992.9316,2.1941,2.1941,0,0,0,1.3965,2.0947,3.6048,3.6048,0,0,0,1.4961.2989h9.11q5.0874,0,7.7139,3.2588a7.4432,7.4432,0,0,1,1.6621,4.7548,7.2581,7.2581,0,0,1-2.5937,5.7188,9.9446,9.9446,0,0,1-6.7823,2.2607H104.4774l1.6963-5.6191h16.8906a2.6172,2.6172,0,0,0,2.6934-1.4629,2.12,2.12,0,0,0,.1992-.8975,2.2012,2.2012,0,0,0-1.33-2.0947,3.5893,3.5893,0,0,0-1.5625-.333Z"/><path class="cls-4" d="M144.3768,56.9911l2.295-5.3867h7.3808l-5.1533-10.9717-9.21,19.8828h-6.6172l12.5352-25.4023,6.3174-1.6963,13.001,27.0986h-6.65l-1.6621-3.5244Z"/></g></g></g><g id="Circuit"><rect class="cls-5" x="33.702" y="15.3205" width="1.088" height="6.8955"/><rect class="cls-5" x="26.1443" y="15.3205" width="1.088" height="6.7767"/><path class="cls-5" d="M34.3279,16.3769a2.5138,2.5138,0,1,1,2.5135-2.5135A2.5168,2.5168,0,0,1,34.3279,16.3769Zm0-3.94a1.4258,1.4258,0,1,0,1.4254,1.4261A1.4275,1.4275,0,0,0,34.3279,12.4373Z"/><path class="cls-5" d="M26.7623,16.3464a2.4408,2.4408,0,1,1,2.5135-2.4394A2.48,2.48,0,0,1,26.7623,16.3464Zm0-3.7914a1.3536,1.3536,0,1,0,1.4255,1.352A1.3916,1.3916,0,0,0,26.7623,12.555Z"/><rect class="cls-5" x="26.0828" y="40.4004" width="1.088" height="6.5008"/><rect class="cls-5" x="33.6477" y="40.4004" width="1.088" height="6.5008"/><path class="cls-5" d="M26.6047,51.2067a2.5129,2.5129,0,1,1,2.5135-2.5128A2.5161,2.5161,0,0,1,26.6047,51.2067Zm0-3.9389A1.4261,1.4261,0,1,0,28.03,48.6939,1.4277,1.4277,0,0,0,26.6047,47.2678Z"/><path class="cls-5" d="M34.17,51.2067a2.5129,2.5129,0,1,1,2.5141-2.5128A2.5161,2.5161,0,0,1,34.17,51.2067Zm0-3.9389a1.4261,1.4261,0,1,0,1.4261,1.4261A1.4278,1.4278,0,0,0,34.17,47.2678Z"/><path class="cls-5" d="M40.2,27.434l-.0035-1.088,4.9762-.0161-.0018-6.038h1.088v6.2894a.81.81,0,0,1-.74.833Zm4.9727-.8521a.2362.2362,0,0,0,0,.0412Z"/><path class="cls-5" d="M45.7147,20.3564a2.5138,2.5138,0,1,1,2.5135-2.5141A2.5173,2.5173,0,0,1,45.7147,20.3564Zm0-3.94A1.4258,1.4258,0,1,0,47.14,17.8423,1.4272,1.4272,0,0,0,45.7147,16.4169Z"/><path class="cls-5" d="M20.7321,27.434,15.46,27.4167a.82.82,0,0,1-.7841-.873l-.0017-6.2518h1.088v6.04l4.9738.0137Zm-4.97-.8778v.0275A.21.21,0,0,0,15.7619,26.5562Z"/><path class="cls-5" d="M15.1982,20.3564a2.5138,2.5138,0,1,1,2.5135-2.5141A2.5167,2.5167,0,0,1,15.1982,20.3564Zm0-3.94a1.4258,1.4258,0,1,0,1.4254,1.4254A1.4272,1.4272,0,0,0,15.1982,16.4169Z"/><path class="cls-5" d="M46.2587,42.09h-1.088V35.3758l-4.9744-.0179L40.2,34.271l5.2748.0191a.8238.8238,0,0,1,.7841.8564Zm-.7882-6.7134h0Z"/><path class="cls-5" d="M45.7147,47.04a2.5135,2.5135,0,1,1,2.5135-2.5141A2.5169,2.5169,0,0,1,45.7147,47.04Zm0-3.94a1.4266,1.4266,0,1,0,1.4254,1.426A1.4277,1.4277,0,0,0,45.7147,43.1Z"/><path class="cls-5" d="M15.7022,42.09H14.6141V35.1453a.8222.8222,0,0,1,.7829-.8552l5.2754-.0191.0036,1.0869-4.9738.0179Zm-.301-6.7134h0Z"/><path class="cls-5" d="M15.1779,47.01a2.5129,2.5129,0,1,1,2.5135-2.5129A2.5165,2.5165,0,0,1,15.1779,47.01Zm0-3.9389a1.4261,1.4261,0,1,0,1.4254,1.426A1.4279,1.4279,0,0,0,15.1779,43.0709Z"/><path class="cls-5" d="M39.6033,41.3212H21.3323a.8636.8636,0,0,1-.8629-.8623V22.1873a.8636.8636,0,0,1,.8629-.8623h18.271a.8636.8636,0,0,1,.8629.8623V40.4589A.8636.8636,0,0,1,39.6033,41.3212ZM21.5574,40.2344H39.3781V22.413H21.5574Z"/></g></svg>