<svg xmlns="http://www.w3.org/2000/svg" xmlns:xlink="http://www.w3.org/1999/xlink" width="51.2553" height="51.2908" viewBox="0 0 51.2553 51.2908"><defs><style>.cls-1,.cls-3{fill:none;stroke-miterlimit:10;stroke-width:0.9307px;}.cls-1{stroke:#fbb03b;}.cls-2{fill:url(#linear-gradient);}.cls-3{stroke:#fff;}</style><linearGradient id="linear-gradient" x1="48.7091" y1="54.3613" x2="7.2614" y2="3.6134" gradientUnits="userSpaceOnUse"><stop offset="0" stop-color="#fff"/><stop offset="0.0187" stop-color="#f9f9f9"/><stop offset="0.2344" stop-color="#b3b3b3"/><stop offset="0.4287" stop-color="#7c7c7c"/><stop offset="0.5949" stop-color="#545454"/><stop offset="0.7266" stop-color="#3c3c3c"/><stop offset="0.8074" stop-color="#333"/></linearGradient></defs><title>toplogoedited</title><g id="Outer_Circles" data-name="Outer Circles"><circle class="cls-1" cx="25.5" cy="25.9444" r="25.0347"/><circle class="cls-2" cx="25.5" cy="25.9444" r="23.6387"/></g><g id="Circuit"><line class="cls-3" x1="28.9697" y1="11.3739" x2="28.9697" y2="17.689"/><line class="cls-3" x1="22.0479" y1="11.3739" x2="22.0479" y2="17.5807"/><circle class="cls-3" cx="29.0443" cy="10.0387" r="1.8043"/><ellipse class="cls-3" cx="22.1158" cy="10.0791" rx="1.8043" ry="1.7365"/><line class="cls-3" x1="21.9914" y1="40.2847" x2="21.9914" y2="34.3304"/><line class="cls-3" x1="28.92" y1="40.2847" x2="28.92" y2="34.3304"/><circle class="cls-3" cx="21.9714" cy="41.9389" r="1.8043"/><circle class="cls-3" cx="28.9" cy="41.9389" r="1.8043"/><path class="cls-3" d="M34.4212,21.97l4.827-.016a.2487.2487,0,0,0,.2251-.2663V15.9264"/><circle class="cls-3" cx="39.4733" cy="13.6834" r="1.8043"/><path class="cls-3" d="M16.5946,21.97l-4.8283-.016a.2472.2472,0,0,1-.2238-.2648V15.9264"/><circle class="cls-3" cx="11.5245" cy="13.6834" r="1.8043"/><path class="cls-3" d="M34.4212,29.2274l4.8317.0176a.261.261,0,0,1,.22.2873v6.3534"/><circle class="cls-3" cx="39.4733" cy="38.2221" r="1.8043"/><path class="cls-3" d="M16.5405,29.2274l-4.833.0176a.26.26,0,0,0-.2191.2856v6.3551"/><circle class="cls-3" cx="11.5064" cy="38.2942" r="1.8043"/><path class="cls-3" d="M34.1686,34.3938a.2917.2917,0,0,1-.2918.2918H17.1389a.2917.2917,0,0,1-.2917-.2918V17.656a.2917.2917,0,0,1,.2917-.2918H33.8768a.2917.2917,0,0,1,.2918.2918Z"/></g></svg>